# xmcd
#
# Track frame offsets: 
#        150
#        22530
#        42419
#        75895
#        90126
#        124409
#        150165
#        163419
#        176511
#        196678
#        215284
#        236940
#
# Disc length: 3496 seconds
#
# Revision: 0
# Processed by: cddbd v1.5.2PL0 Copyright (c) Steve Scherf et al.
# Submitted via: ExactAudioCopy v1.0b1
#
DISCID=820da60c
DTITLE=Buddy Guy - Skin Deep
DYEAR=2008
DGENRE=Blues
TTITLE0=Best Damn Fool
TTITLE1=Too Many Tears (featuring Derek Trucks and Susan Tedeschi)
TTITLE2=Lyin' Like A Dog
TTITLE3=Show Me The Money
TTITLE4=Every Time I Sing The Blues (featuring Eric Clapton)
TTITLE5=Out In The Woods (featuring Robert Randolph)
TTITLE6=Hammer And A Nail
TTITLE7=That's My Home (featuring Robert Randolph)
TTITLE8=Skin Deep (featuring Derek Trucks)
TTITLE9=Who's Gonna Fill Those Shoes
TTITLE10=Smell The Funk
TTITLE11=I Found Happiness
EXTD=
EXTT0=
EXTT1=
EXTT2=
EXTT3=
EXTT4=
EXTT5=
EXTT6=
EXTT7=
EXTT8=
EXTT9=
EXTT10=
EXTT11=
PLAYORDER=
